<?xml version="1.0" encoding="UTF-8"?>
<svg width="40px" height="40px" viewBox="0 0 40 40" version="1.1" xmlns="http://www.w3.org/2000/svg" xmlns:xlink="http://www.w3.org/1999/xlink">
    <title>Group 5 Copy</title>
    <defs>
        <filter color-interpolation-filters="auto" id="filter-1">
            <feColorMatrix in="SourceGraphic" type="matrix" values="0 0 0 0 0.000000 0 0 0 0 0.000000 0 0 0 0 0.000000 0 0 0 0.160000 0"></feColorMatrix>
        </filter>
    </defs>
    <g id="Dasboard-1.5" stroke="none" stroke-width="1" fill="none" fill-rule="evenodd">
        <g id="Dashboard-empty-state-" transform="translate(-1764.000000, -893.000000)">
            <g id="Group" transform="translate(1764.000000, 893.000000)">
                <rect id="Rectangle-Copy-2" x="0" y="0" width="40" height="40" rx="3"></rect>
                <g transform="translate(8.000000, 8.000000)" id="view_week_black_24dp-(2)-copy" filter="url(#filter-1)">
                    <g>
                        <rect id="Rectangle" x="0" y="0" width="24" height="24"></rect>
                        <path d="M18.66,18 L18.66,6 C18.66,4.9 17.76,4 16.66,4 L15.33,4 C14.23,4 13.33,4.9 13.33,6 L13.33,18 C13.33,19.1 14.23,20 15.33,20 L16.66,20 C17.77,20 18.66,19.1 18.66,18 Z M11.33,18 L11.33,6 C11.33,4.9 10.43,4 9.33,4 L8,4 C6.9,4 6,4.9 6,6 L6,18 C6,19.1 6.9,20 8,20 L9.33,20 C10.43,20 11.33,19.1 11.33,18 Z" id="Shape" fill="#000000" fill-rule="nonzero"></path>
                    </g>
                </g>
            </g>
        </g>
    </g>
</svg>