<?xml version="1.0" encoding="UTF-8"?>
<svg width="40px" height="40px" viewBox="0 0 40 40" version="1.1" xmlns="http://www.w3.org/2000/svg" xmlns:xlink="http://www.w3.org/1999/xlink">
    <title>Group 4</title>
    <defs>
        <filter color-interpolation-filters="auto" id="filter-1">
            <feColorMatrix in="SourceGraphic" type="matrix" values="0 0 0 0 0.000000 0 0 0 0 0.000000 0 0 0 0 0.000000 0 0 0 0.160000 0"></feColorMatrix>
        </filter>
    </defs>
    <g id="Dasboard-1.5" stroke="none" stroke-width="1" fill="none" fill-rule="evenodd">
        <g id="Dashboard-Chart--view-empty-Copy" transform="translate(-456.000000, -301.000000)">
            <g id="Group-4" transform="translate(456.000000, 301.000000)">
                <rect id="Rectangle-Copy-3" x="0" y="0" width="40" height="40" rx="3"></rect>
                <g id="view_week_black_24dp-(2)-copy-2" transform="translate(8.000000, 8.000000)" filter="url(#filter-1)">
                    <g>
                        <rect id="Rectangle" x="0" y="0" width="24" height="24"></rect>
                        <path d="M5.33,20 L4,20 C2.9,20 2,19.1 2,18 L2,6 C2,4.9 2.9,4 4,4 L5.33,4 C6.43,4 7.33,4.9 7.33,6 L7.33,18 C7.33,19.1 6.44,20 5.33,20 Z M22,18 L22,6 C22,4.9 21.1,4 20,4 L18.67,4 C17.57,4 16.67,4.9 16.67,6 L16.67,18 C16.67,19.1 17.57,20 18.67,20 L20,20 C21.11,20 22,19.1 22,18 Z M14.67,18 L14.67,6 C14.67,4.9 13.77,4 12.67,4 L11.34,4 C10.24,4 9.34,4.9 9.34,6 L9.34,18 C9.34,19.1 10.24,20 11.34,20 L12.67,20 C13.77,20 14.67,19.1 14.67,18 Z" id="Shape" fill="#000000" fill-rule="nonzero"></path>
                    </g>
                </g>
            </g>
        </g>
    </g>
</svg>