<?xml version="1.0" encoding="UTF-8"?>
<svg width="165px" height="140px" viewBox="0 0 165 140" version="1.1" xmlns="http://www.w3.org/2000/svg" xmlns:xlink="http://www.w3.org/1999/xlink">
    <title>line-chart (1) copy</title>
    <defs>
        <filter color-interpolation-filters="auto" id="filter-1">
            <feColorMatrix in="SourceGraphic" type="matrix" values="0 0 0 0 0.000000 0 0 0 0 0.454902 0 0 0 0 0.713725 0 0 0 1.000000 0"></feColorMatrix>
        </filter>
    </defs>
    <g id="Visualization-tool" stroke="none" stroke-width="1" fill="none" fill-rule="evenodd" opacity="0.2">
        <g id="Empty" transform="translate(-1268.000000, -480.000000)">
            <g id="line-chart-(1)-copy" transform="translate(1161.000000, 480.000000)" filter="url(#filter-1)">
                <g transform="translate(107.000000, 0.000000)">
                    <path d="M11,110.291328 L11,137.01897 C11,138.644986 12.3396947,140 14.0229008,140 L34.9770992,140 C36.6259542,140 38,138.678862 38,137.01897 L38,90 L22.7824427,105.006775 C19.5534351,108.157182 15.4312977,109.98645 11,110.291328 Z" id="Path" fill="#000000" fill-rule="nonzero"></path>
                    <path d="M48,90 L48,137.039031 C48,138.654105 49.3396947,140 51.0229008,140 L71.9770992,140 C73.6259542,140 75,138.687752 75,137.039031 L75,109.347241 C70.2251908,109.246299 65.759542,107.395693 62.3931298,104.09825 L48,90 Z" id="Path" fill="#000000" fill-rule="nonzero"></path>
                    <path d="M85,106.112054 L85,137.011885 C85,138.641766 86.3396947,140 88.0229008,140 L108.977099,140 C110.625954,140 112,138.675722 112,137.011885 L112,80 L87.9885496,103.735144 C87.0610687,104.651952 86.0648855,105.432937 85,106.112054 Z" id="Path" fill="#000000" fill-rule="nonzero"></path>
                    <path d="M146.973282,45 L122,69.6748839 L122,137.013219 C122,138.642372 123.339695,140 125.022901,140 L145.977099,140 C147.625954,140 149,138.676313 149,137.013219 L149,46.8667381 C148.312977,46.2897463 147.79771,45.7806359 147.419847,45.441229 L146.973282,45 Z" id="Path" fill="#000000" fill-rule="nonzero"></path>
                    <path d="M163.595901,1.58409168 C162.612834,0.539265251 161.121284,0 159.222948,0 C159.053454,0 158.850061,0 158.680566,0 C149.05329,0.438153017 139.459912,0.910010111 129.832636,1.34816313 C128.544479,1.41557128 126.781738,1.48297944 125.391885,2.86484665 C124.9512,3.30299966 124.612211,3.80856084 124.34102,4.41523424 C122.917268,7.48230536 124.917301,9.47084597 125.866469,10.4145602 L128.273288,12.8412538 C129.934332,14.5264577 131.629276,16.2116616 133.324219,17.8631614 L75.1537738,75.7330637 L49.0177524,49.7472194 C47.4584048,48.1968318 45.3566754,47.3205258 43.1193506,47.3205258 C40.8820258,47.3205258 38.8141953,48.1968318 37.2548477,49.7472194 L2.44071796,84.3276036 C-0.813572653,87.5631951 -0.813572653,92.7873273 2.44071796,96.0229188 L4.00006554,97.5733064 C5.55941313,99.123694 7.66114248,100 9.89846728,100 C12.1357921,100 14.2036226,99.123694 15.7629702,97.5733064 L43.1193506,70.3741153 L69.2553721,96.3599596 C70.8147197,97.9103472 72.916449,98.7866532 75.1537738,98.7866532 C77.3910986,98.7866532 79.4589291,97.9103472 81.0521756,96.3599596 L146.68037,31.1088642 L154.10422,38.4563532 C154.98559,39.3326593 156.205949,40.5460061 158.070387,40.5460061 C158.850061,40.5460061 159.629734,40.3437816 160.443307,39.9056286 C160.985689,39.6022919 161.460273,39.2652511 161.867059,38.8608022 C163.32471,37.4115268 163.595901,35.5578025 163.663699,34.1085271 C163.93489,27.9069767 164.239979,21.7054264 164.545069,15.4701719 L164.985754,6.13414223 C165.087451,4.1793057 164.646766,2.66262218 163.595901,1.58409168 Z" id="Path" fill="#000000" fill-rule="nonzero"></path>
                </g>
            </g>
        </g>
    </g>
</svg>