<?xml version="1.0" encoding="UTF-8"?>
<svg width="192px" height="187px" viewBox="0 0 192 187" version="1.1" xmlns="http://www.w3.org/2000/svg" xmlns:xlink="http://www.w3.org/1999/xlink">
    <title>undraw_No_data_re_kwbl</title>
    <g id="Visualization-tool" stroke="none" stroke-width="1" fill="none" fill-rule="evenodd" opacity="0.451660883">
        <g id="Empty" transform="translate(-299.000000, -397.000000)">
            <g id="undraw_No_data_re_kwbl" transform="translate(299.000000, 397.000000)">
                <path d="M122,41.7051154 L70.3977991,41.7051154 C67.9493909,41.7080941 65.9653065,43.6923775 65.9623281,46.1410315 L65.9623281,160.839034 L65.370932,161.019443 L52.7120802,164.896433 C51.4629027,165.277358 50.1412151,164.57475 49.7581334,163.326119 L12.1038446,40.3181523 C11.7222729,39.0687588 12.4250591,37.74645 13.674019,37.3638323 L33.1812853,31.390132 L89.7335398,14.0782303 L109.240658,8.10453001 C109.840219,7.91998615 110.488553,7.98150668 111.042711,8.27552721 C111.59687,8.56954774 112.011346,9.07192316 112.194753,9.67188701 L121.819666,41.11366 L122,41.7051154 Z" id="Path" fill="#F2F2F2" fill-rule="nonzero"></path>
                <path d="M132.819553,41.52876 L121.220659,3.56301589 C120.830925,2.28545259 119.950503,1.21547321 118.773228,0.588649032 C117.595954,-0.0381751494 116.218349,-0.170452374 114.943714,0.220940081 L87.520888,8.63242343 L30.9782044,25.9798175 L3.55537815,34.3942637 C0.902842648,35.2104717 -0.589362409,38.0247531 0.220206628,40.6843585 L39.8628454,170.435711 C40.5112167,172.552274 42.4610036,173.997828 44.6704172,174 C45.168558,174 45.6638958,173.925319 46.139784,173.777787 L64.9381181,168.012114 L65.5294459,167.828418 L65.5294459,167.209186 L64.9381181,167.389919 L45.9653896,173.211886 C43.624105,173.927073 41.1468945,172.608339 40.4276048,170.263867 L0.787996616,40.5095513 C0.442307395,39.3827367 0.558188346,38.1643976 1.11007488,37.1233129 C1.66196141,36.0822283 2.60450367,35.3039464 3.72976663,34.9601648 L31.1525929,26.5457187 L87.6954272,9.20129332 L115.118254,0.786847141 C115.540848,0.65760807 115.980194,0.591712776 116.422031,0.591300152 C118.368467,0.595679716 120.085039,1.87016195 120.656032,3.73486614 L132.201648,41.528766 L132.384995,42.1213326 L133,42.1213326 L132.819553,41.52876 Z" id="Path" fill="#3F3D56" fill-rule="nonzero"></path>
                <path d="M36.4551745,38 C35.2882386,37.9991589 34.2581977,37.2286545 33.9153279,36.1001113 L30.1163601,23.5454596 C29.9101885,22.8643747 29.9799223,22.1283169 30.3102164,21.4992586 C30.6405104,20.8702004 31.2042998,20.399688 31.8775204,20.1912594 L83.7693979,4.11775677 C85.1710564,3.68500937 86.6543753,4.4821632 87.0847632,5.89947503 L90.883731,18.4542729 C91.3111661,19.8723841 90.5233781,21.372949 89.1227181,21.8086193 L37.2306962,37.882122 C36.9794064,37.9601498 36.7180322,38 36.4551745,38 L36.4551745,38 Z" id="Path" fill="#019AC9"></path>
                <circle id="Oval" fill="#019AC9" fill-rule="nonzero" cx="56" cy="7" r="6"></circle>
                <circle id="Oval" fill="#FFFFFF" fill-rule="nonzero" cx="57" cy="7" r="4"></circle>
                <path d="M178.485915,172 L78.5140845,172 C77.1262568,171.998399 76.0015989,170.872091 76,169.482227 L76,49.5177725 C76.0015502,48.1278887 77.1262366,47.0015524 78.5140845,47 L178.485915,47 C179.873743,47.0016029 180.998399,48.1279096 181,49.5177725 L181,169.482227 C180.998349,170.872069 179.873722,171.998347 178.485915,172 Z" id="Path" fill="#E6E6E6" fill-rule="nonzero"></path>
                <path d="M132.505841,41 L70.0443925,41 C67.2600853,41.0039407 65.0039404,43.26023 65,46.0447154 L65,167.058537 L65.5934579,166.87752 L65.5934579,46.0447154 C65.5964467,43.5876139 67.5874483,41.5964849 70.0443925,41.5934959 L132.689849,41.5934959 L132.505841,41 Z M186.955607,41 L70.0443925,41 C67.2600853,41.0039407 65.0039404,43.26023 65,46.0447154 L65,181.955285 C65.0039388,184.739771 67.2600846,186.996061 70.0443925,187 L186.955607,187 C189.739915,186.996061 191.996061,184.739771 192,181.955285 L192,46.0447154 C191.99606,43.26023 189.739915,41.0039407 186.955607,41 L186.955607,41 Z M191.406542,181.955285 C191.403553,184.412386 189.412552,186.403515 186.955607,186.406504 L70.0443925,186.406504 C67.5874483,186.403515 65.5964467,184.412386 65.5934579,181.955285 L65.5934579,46.0447154 C65.5964467,43.5876139 67.5874483,41.5964849 70.0443925,41.5934959 L186.955607,41.5934959 C189.412552,41.5964849 191.403553,43.5876139 191.406542,46.0447154 L191.406542,181.955285 Z" id="Shape" fill="#3F3D56" fill-rule="nonzero"></path>
                <path d="M155.326733,54 L100.673267,54 C99.1975513,53.998376 98.0016615,52.8294902 98,51.3870968 L98,38.6129032 C98.0016631,37.1705105 99.197552,36.0016256 100.673267,36 L155.326733,36 C156.802448,36.0016256 157.998337,37.1705105 158,38.6129032 L158,51.3870968 C157.998339,52.8294902 156.802449,53.998376 155.326733,54 Z" id="Path" fill="#019AC9"></path>
                <circle id="Oval" fill="#019AC9" cx="128" cy="31" r="6"></circle>
                <circle id="Oval" fill="#FFFFFF" fill-rule="nonzero" cx="128.5" cy="31.5" r="3.5"></circle>
            </g>
        </g>
    </g>
</svg>