<?xml version="1.0" encoding="UTF-8"?>
<svg width="40px" height="40px" viewBox="0 0 40 40" version="1.1" xmlns="http://www.w3.org/2000/svg" xmlns:xlink="http://www.w3.org/1999/xlink">
    <title>stacked_bar_chart_black_24dp</title>
    <defs>
        <filter color-interpolation-filters="auto" id="filter-1">
            <feColorMatrix in="SourceGraphic" type="matrix" values="0 0 0 0 0.000000 0 0 0 0 0.407843 0 0 0 0 0.745098 0 0 0 1.000000 0"></feColorMatrix>
        </filter>
    </defs>
    <g id="Dashboard-" stroke="none" stroke-width="1" fill="none" fill-rule="evenodd">
        <g id="stacked_bar_chart_black_24dp" transform="translate(-593.000000, -149.000000)" filter="url(#filter-1)">
            <g transform="translate(593.000000, 149.000000)">
                <rect id="Rectangle" x="0" y="0" width="40" height="40"></rect>
                <path d="M10,16.6666667 L15,16.6666667 L15,33.3333333 L10,33.3333333 L10,16.6666667 Z M10,8.33333333 L15,8.33333333 L15,15 L10,15 L10,8.33333333 Z M26.6666667,26.6666667 L31.6666667,26.6666667 L31.6666667,33.3333333 L26.6666667,33.3333333 L26.6666667,26.6666667 Z M26.6666667,21.6666667 L31.6666667,21.6666667 L31.6666667,25 L26.6666667,25 L26.6666667,21.6666667 Z M18.3333333,21.6666667 L23.3333333,21.6666667 L23.3333333,33.3333333 L18.3333333,33.3333333 L18.3333333,21.6666667 Z M18.3333333,15 L23.3333333,15 L23.3333333,20 L18.3333333,20 L18.3333333,15 Z" id="Shape" fill="#000000" fill-rule="nonzero"></path>
            </g>
        </g>
    </g>
</svg>