<?xml version="1.0" encoding="UTF-8"?>
<svg width="280px" height="149px" viewBox="0 0 280 149" version="1.1" xmlns="http://www.w3.org/2000/svg" xmlns:xlink="http://www.w3.org/1999/xlink">
    <title>undraw_Dashboard_re_3b76</title>
    <g id="Dasboard-1.5" stroke="none" stroke-width="1" fill="none" fill-rule="evenodd" opacity="0.5">
        <g id="Dashboard-empty-state-" transform="translate(-1287.000000, -312.000000)" fill-rule="nonzero">
            <g id="undraw_Dashboard_re_3b76" transform="translate(1287.000000, 312.000000)">
                <path d="M14,147.978123 L14.056462,147.684173 C14.0689861,147.619558 15.3542407,141.182022 20.1721423,137.446495 C24.9902607,133.7108 31.6308302,134.003166 31.6972089,134.006578 L32,134.022002 L31.9435195,134.315827 C31.9309927,134.380442 30.6457144,140.817852 25.8278366,144.553505 C21.0097181,148.2892 14.3691513,147.996834 14.30277,147.993422 L14,147.978123 Z M20.4988579,137.857141 C16.4252883,141.015431 14.9585151,146.179608 14.644641,147.478309 C15.9974722,147.483883 21.4314996,147.298286 25.5011183,144.14287 C29.570269,140.987793 31.0402764,135.821123 31.3553325,134.521702 C30.0017213,134.516125 24.5682439,134.701889 20.4988579,137.857141 Z" id="Shape" fill="#F1F1F1"></path>
                <path d="M21.0245622,139.092336 C18.8155026,144.891322 13.0001433,148 13.0001433,148 C13.0001433,148 10.7663809,141.706653 12.9754405,135.907667 C15.1845001,130.108681 20.9998489,127 20.9998489,127 C20.9998489,127 23.2336218,133.29335 21.0245622,139.092336 Z" id="Path" fill="#F1F1F1"></path>
                <path d="M271.697233,147.993422 C271.630857,147.996834 264.990282,148.2892 260.172166,144.553505 C255.354286,140.817852 254.069007,134.380442 254.056483,134.315827 L254,134.022002 L254.302791,134.006578 C254.369167,134.003166 261.009742,133.7108 265.827858,137.446495 C270.645759,141.182022 271.931017,147.619558 271.943541,147.684173 L272,147.978123 L271.697233,147.993422 Z M254.64467,134.521691 C254.959729,135.82112 256.429734,140.98779 260.498887,144.142867 C264.568503,147.298283 270.002533,147.48388 271.355362,147.478306 C271.04149,146.179605 269.574717,141.015428 265.501147,137.857138 C261.431756,134.701881 255.998281,134.516117 254.64467,134.521691 L254.64467,134.521691 Z" id="Shape" fill="#F1F1F1"></path>
                <path d="M262.975443,139.092336 C265.184501,144.891322 270.999858,148 270.999858,148 C270.999858,148 273.233618,141.706653 271.02456,135.907667 C268.815503,130.108681 263.000146,127 263.000146,127 C263.000146,127 260.766378,133.29335 262.975443,139.092336 Z" id="Path" fill="#F1F1F1"></path>
                <path d="M160.477999,147.32293 L156.464467,145.593217 L153.711199,125 L117.046494,125 L114.062159,145.509083 L110.471419,147.346662 C110.117716,147.527683 109.932032,147.933863 110.022898,148.327793 C110.113764,148.721722 110.457332,149 110.852788,149 L160.147214,149 C160.553095,149 160.902735,148.707214 160.983054,148.299999 C161.063373,147.892785 160.852104,147.484067 160.477999,147.32293 Z" id="Path" fill="#E6E6E6"></path>
                <path d="M224.482105,128 L46.5178976,128 C44.5737488,127.995575 43,126.39743 43,124.427537 L43,99 L228,99 L228,124.427534 C228,126.397419 226.426246,127.995556 224.482105,128 L224.482105,128 Z" id="Path" fill="#CCCCCC"></path>
                <path d="M228,112 L43,112 L43,4.26444112 C43.0027073,1.91032495 44.9005445,0.00263863771 47.2424243,0 L223.757532,0 C226.09942,0.00263709137 227.99727,1.91031728 228,4.26444112 L228,112 Z" id="Path" fill="#3F3D56"></path>
                <path d="M217.718646,104 L54.2813537,104 C52.4699697,103.998019 51.0020339,102.532806 51,100.724733 L51,11.275468 C51.0020187,9.46735576 52.4699309,8.00207648 54.2813537,8 L217.718646,8 C219.530068,8.00207798 220.99798,9.46735638 221,11.275468 L221,100.724733 C220.997965,102.532806 219.53003,103.998018 217.718646,104 Z" id="Path" fill="#FFFFFF"></path>
                <path d="M279.584625,148.999883 L0.432313417,148.999883 C0.239001257,149.004823 0.0671582303,148.852425 0.0137433164,148.628678 C-0.0191234469,148.478574 0.00769146807,148.318605 0.0863382852,148.195599 C0.164985102,148.072593 0.2865682,148.000465 0.415495444,148.000328 L279.550616,148.000328 C279.754788,147.991715 279.936945,148.153703 279.990149,148.391196 C280.01741,148.539287 279.987411,148.694273 279.908582,148.812594 C279.829753,148.930915 279.710605,148.999798 279.584625,148.999883 Z" id="Path" fill="#CCCCCC"></path>
                <rect id="Rectangle" fill="#E5E5E5" x="60" y="41" width="27" height="3"></rect>
                <rect id="Rectangle" fill="#E5E5E5" x="60" y="48" width="27" height="3"></rect>
                <rect id="Rectangle" fill="#E5E5E5" x="60" y="54" width="27" height="3"></rect>
                <rect id="Rectangle" fill="#E5E5E5" x="60" y="60" width="27" height="3"></rect>
                <rect id="Rectangle" fill="#6C63FF" x="66" y="69" width="14" height="2"></rect>
                <rect id="Rectangle" fill="#E5E5E5" x="127.95" y="57" width="1" height="1"></rect>
                <path d="M128.94478,73 L128,73 L128,71.4444207 L128.94478,71.4444207 L128.94478,73 Z M128.94478,69.8889109 L128,69.8889109 L128,68.3333342 L128.94478,68.3333342 L128.94478,69.8889109 Z M128.94478,66.77776 L128,66.77776 L128,65.2222425 L128.94478,65.2222425 L128.94478,66.77776 Z M128.94478,63.6666684 L128,63.6666684 L128,62.1110916 L128.94478,62.1110916 L128.94478,63.6666684 Z M128.94478,60.5555767 L128,60.5555767 L128,59 L128.94478,59 L128.94478,60.5555767 Z" id="Shape" fill="#E5E5E5"></path>
                <rect id="Rectangle" fill="#E5E5E5" x="127.95" y="75" width="1" height="1"></rect>
                <rect id="Rectangle" fill="#E5E5E5" x="156.95" y="57" width="1" height="1"></rect>
                <path d="M157.94479,73 L157,73 L157,71.4444207 L157.94479,71.4444207 L157.94479,73 Z M157.94479,69.8889109 L157,69.8889109 L157,68.3333342 L157.94479,68.3333342 L157.94479,69.8889109 Z M157.94479,66.77776 L157,66.77776 L157,65.2222425 L157.94479,65.2222425 L157.94479,66.77776 Z M157.94479,63.6666684 L157,63.6666684 L157,62.1110916 L157.94479,62.1110916 L157.94479,63.6666684 Z M157.94479,60.5555767 L157,60.5555767 L157,59 L157.94479,59 L157.94479,60.5555767 Z" id="Shape" fill="#E5E5E5"></path>
                <rect id="Rectangle" fill="#E5E5E5" x="156.95" y="75" width="1" height="1"></rect>
                <rect id="Rectangle" fill="#E5E5E5" x="170.95" y="42" width="1" height="1"></rect>
                <path d="M170.94478,74 L170,74 L170,72.4210545 L170.94478,72.4210545 L170.94478,74 Z M170.94478,70.8421253 L170,70.8421253 L170,69.2631254 L170.94478,69.2631254 L170.94478,70.8421253 Z M170.94478,67.684188 L170,67.684188 L170,66.1052507 L170.94478,66.1052507 L170.94478,67.684188 Z M170.94478,64.5263134 L170,64.5263134 L170,62.947376 L170.94478,62.947376 L170.94478,64.5263134 Z M170.94478,61.3684387 L170,61.3684387 L170,59.7894387 L170.94478,59.7894387 L170.94478,61.3684387 Z M170.94478,58.2105014 L170,58.2105014 L170,56.6315641 L170.94478,56.6315641 L170.94478,58.2105014 Z M170.94478,55.052624 L170,55.052624 L170,53.4736866 L170.94478,53.4736866 L170.94478,55.052624 Z M170.94478,51.8947493 L170,51.8947493 L170,50.315812 L170.94478,50.315812 L170.94478,51.8947493 Z M170.94478,48.736812 L170,48.736812 L170,47.1578747 L170.94478,47.1578747 L170.94478,48.736812 Z M170.94478,45.5789373 L170,45.5789373 L170,44 L170.94478,44 L170.94478,45.5789373 Z" id="Shape" fill="#E5E5E5"></path>
                <rect id="Rectangle" fill="#E5E5E5" x="170.95" y="75" width="1" height="1"></rect>
                <rect id="Rectangle" fill="#E5E5E5" x="183.95" y="36" width="1" height="1"></rect>
                <path d="M184.94479,74 L184,74 L184,72.4347524 L184.94479,72.4347524 L184.94479,74 Z M184.94479,70.869567 L184,70.869567 L184,69.3043221 L184.94479,69.3043221 L184.94479,70.869567 Z M184.94479,67.7391367 L184,67.7391367 L184,66.173889 L184.94479,66.173889 L184.94479,67.7391367 Z M184.94479,64.6087037 L184,64.6087037 L184,63.043456 L184.94479,63.043456 L184.94479,64.6087037 Z M184.94479,61.4782706 L184,61.4782706 L184,59.913023 L184.94479,59.913023 L184.94479,61.4782706 Z M184.94479,58.3478403 L184,58.3478403 L184,56.7825927 L184.94479,56.7825927 L184.94479,58.3478403 Z M184.94479,55.2174073 L184,55.2174073 L184,53.6521597 L184.94479,53.6521597 L184.94479,55.2174073 Z M184.94479,52.0869743 L184,52.0869743 L184,50.5217294 L184.94479,50.5217294 L184.94479,52.0869743 Z M184.94479,48.956544 L184,48.956544 L184,47.3912963 L184.94479,47.3912963 L184.94479,48.956544 Z M184.94479,45.826111 L184,45.826111 L184,44.2608633 L184.94479,44.2608633 L184.94479,45.826111 Z M184.94479,42.6956779 L184,42.6956779 L184,41.1304303 L184.94479,41.1304303 L184.94479,42.6956779 Z M184.94479,39.5652449 L184,39.5652449 L184,38 L184.94479,38 L184.94479,39.5652449 Z" id="Shape" fill="#E5E5E5"></path>
                <rect id="Rectangle" fill="#E5E5E5" x="183.95" y="75" width="1" height="1"></rect>
                <rect id="Rectangle" fill="#E5E5E5" x="140.95" y="47" width="1" height="1"></rect>
                <path d="M141.94478,75 L141,75 L141,73.5294421 L141.94478,73.5294421 L141.94478,75 Z M141.94478,72.0588201 L141,72.0588201 L141,70.5882622 L141.94478,70.5882622 L141.94478,72.0588201 Z M141.94478,69.1176401 L141,69.1176401 L141,67.6470823 L141.94478,67.6470823 L141.94478,69.1176401 Z M141.94478,66.1764602 L141,66.1764602 L141,64.7059023 L141.94478,64.7059023 L141.94478,66.1764602 Z M141.94478,63.2352803 L141,63.2352803 L141,61.7647224 L141.94478,61.7647224 L141.94478,63.2352803 Z M141.94478,60.2941003 L141,60.2941003 L141,58.8235398 L141.94478,58.8235398 L141.94478,60.2941003 Z M141.94478,57.3529204 L141,57.3529204 L141,55.8823518 L141.94478,55.8823518 L141.94478,57.3529204 Z M141.94478,54.4117405 L141,54.4117405 L141,52.9411799 L141.94478,52.9411799 L141.94478,54.4117405 Z M141.94478,51.4705605 L141,51.4705605 L141,50 L141.94478,50 L141.94478,51.4705605 Z" id="Shape" fill="#E5E5E5"></path>
                <rect id="Rectangle" fill="#E5E5E5" x="140.95" y="75" width="1" height="1"></rect>
                <path d="M199.732534,77 L114.267466,77 C114.119752,77 114,76.8816863 114,76.7357459 L114,36.2642541 C114,36.1183106 114.119749,36 114.267466,36 C114.415183,36 114.534932,36.1183106 114.534932,36.2642541 L114.534932,76.471489 L199.732534,76.471489 C199.880251,76.471489 200,76.5897996 200,76.7357432 C200,76.8816867 199.880251,77 199.732534,77 L199.732534,77 Z" id="Path" fill="#3F3D56"></path>
                <polygon id="Path" fill="#3F3D56" points="155.564253 58 141.345423 47.2752031 127.320993 57.8535187 127 57.4220598 141.345423 46.6017196 155.496446 57.2755785 169.558607 41.778576 169.615205 41.7554474 183.799858 36 184 36.5002941 169.871671 42.2326129"></polygon>
                <circle id="Oval" fill="#6C63FF" cx="128" cy="57" r="2"></circle>
                <circle id="Oval" fill="#6C63FF" cx="141" cy="47" r="2"></circle>
                <circle id="Oval" fill="#6C63FF" cx="157" cy="57" r="2"></circle>
                <circle id="Oval" fill="#6C63FF" cx="171" cy="41" r="2"></circle>
                <circle id="Oval" fill="#6C63FF" cx="184" cy="36" r="2"></circle>
                <rect id="Rectangle" fill="#E5E5E5" x="94" y="8" width="1" height="96"></rect>
                <path d="M224.086773,103.321911 C224.523918,102.899513 224.708108,102.341646 224.589781,101.79842 C224.471454,101.255194 224.062764,100.78241 223.473683,100.507284 L225,94 L221.085427,95.3241506 L220.236145,101.300571 C219.721014,102.153186 220.072952,103.183783 221.055347,103.699479 C222.037742,104.215176 223.340076,104.052968 224.086773,103.321911 L224.086773,103.321911 Z" id="Path" fill="#FFB7B7"></path>
                <polygon id="Path" fill="#FFB7B7" points="240.999361 145 237.611708 145 236 135 241 135.000245"></polygon>
                <path d="M239.999834,148 L231,147.999633 L231,147.873749 C231.000135,145.734375 232.568406,144.000116 234.502987,144 L234.503208,144 L240,144.000247 L239.999834,148 Z" id="Path" fill="#2F2E41"></path>
                <polygon id="Path" fill="#FFB7B7" points="224.999361 145 221.611708 145 220 135 225 135.000245"></polygon>
                <path d="M223.999834,148 L215,147.999633 L215,147.873749 C215.000135,145.734375 216.568406,144.000116 218.502987,144 L218.503208,144 L224,144.000247 L223.999834,148 Z" id="Path" fill="#2F2E41"></path>
                <polygon id="Path" fill="#2F2E41" points="224.312699 98 221.401627 104.52063 219 142 225.065083 141.764071 226.72162 123.897595 231.831214 107.98428 234.768936 125.725019 235.981952 141.292214 241.000374 141.503595 243 98"></polygon>
                <path d="M237.717427,67 L229.29761,67.1994952 L224.35432,69.6031639 L224.083039,87.33693 L221,99.5806268 C221,99.5806268 240.263149,100.836371 242.92612,99.0019432 L239.778974,85.0144319 L244,69.8979228 L237.717427,67 Z" id="Path" fill="#6C63FF"></path>
                <path d="M226.572961,70.2806777 L225.582282,70 C225.582282,70 222.439631,71.7558707 222.738649,76.0010111 C222.738649,76.0010111 222.620853,78.1977186 222.733333,79.65969 C222.862334,81.336567 219,98 219,98 L224.599999,98 L227,82.9098731 L226.572961,70.2806777 Z" id="Path" fill="#6C63FF"></path>
                <path d="M243.913226,103.321911 C243.476081,102.899513 243.291891,102.341646 243.410218,101.79842 C243.528546,101.255194 243.937234,100.78241 244.526315,100.507284 L243,94 L246.914568,95.3241506 L247.763855,101.300571 C248.278986,102.153186 247.927048,103.183783 246.944654,103.699479 C245.96226,104.215176 244.659928,104.052968 243.913232,103.321911 L243.913226,103.321911 Z" id="Path" fill="#FFB7B7"></path>
                <path d="M242.560367,70.280675 L243.55105,70 C243.55105,70 246.693699,71.7558707 246.394684,76.0010111 C246.394684,76.0010111 246.51248,78.1977186 246.400001,79.65969 C246.270999,81.336567 248,98 248,98 L242.400002,98 L240,82.9098705 L242.560367,70.280675 Z" id="Path" fill="#6C63FF"></path>
                <path d="M240,59.4999229 C240,61.7244295 238.659978,63.7298981 236.604802,64.5811817 C234.549626,65.4324652 232.184016,64.961918 230.61105,63.3889554 C229.038085,61.8159928 228.567535,59.450383 229.418815,57.3952064 C230.270096,55.3400298 232.275563,54 234.50007,54 L234.50007,54 C235.955103,53.996383 237.351985,54.5709075 238.383417,55.5972017 C239.41485,56.6234958 239.996344,58.0174908 240,59.4725233 C240,59.4816451 240,59.4907783 240,59.4999229 Z" id="Path" fill="#FFB7B7"></path>
                <path d="M229.233586,51.43217 C229.87123,50.1013697 231.105185,50.3644805 232.184385,50.8155834 C233.551013,50.5213669 234.850765,49.6405191 236.323227,50.1614475 C237.773666,52.2089471 242.643432,51.6065425 241.607403,54.9398866 C241.606048,55.7386272 243.155954,55.2737072 242.88537,56.5818624 C243.706414,59.0993902 239.921776,63.8672124 237.74911,62.8631862 C238.286446,61.9073767 239.513932,59.7364047 237.65218,59.5210825 C233.647295,63.1378286 237.238977,52.6339841 232.206933,55.6886722 C230.540782,57.1685723 228.259785,52.9124501 229.233586,51.43217 Z" id="Path" fill="#2F2E41"></path>
            </g>
        </g>
    </g>
</svg>