<?xml version="1.0" encoding="UTF-8"?>
<svg width="120px" height="97px" viewBox="0 0 120 97" version="1.1" xmlns="http://www.w3.org/2000/svg" xmlns:xlink="http://www.w3.org/1999/xlink">
    <title>undraw_Pie_chart_re_bgs8</title>
    <g id="Dasboard-1.5" stroke="none" stroke-width="1" fill="none" fill-rule="evenodd" opacity="0.5">
        <g id="Dashboard-Chart----full-empty" transform="translate(-92.000000, -285.000000)" fill-rule="nonzero">
            <g id="undraw_Pie_chart_re_bgs8" transform="translate(92.000000, 285.000000)">
                <path d="M0.115908891,83.8197122 C0.616992042,80.002841 3.11412513,76.2421138 6.95684552,75 C5.44138471,78.9286291 5.44171319,83.2384175 6.95777287,87.1668393 C7.54825111,88.6798598 8.37131307,90.3044615 7.81588966,91.8293569 C7.4703134,92.7781892 6.62490456,93.5041294 5.67990738,93.9580399 C4.7348528,94.4119518 3.68603987,94.628294 2.65035173,94.8403083 L2.44652324,95 C0.802383896,91.4831676 -0.385174259,87.6365834 0.115908891,83.8197122 Z" id="Path" fill="#F0F0F0"></path>
                <path d="M5.97895611,75.1533114 C4.05997847,77.5315655 2.86727795,80.51815 2.57026322,83.688857 C2.49536636,84.3701822 2.51803279,85.0603073 2.63742804,85.7338255 C2.77290207,86.3857606 3.0637395,86.9856758 3.47972158,87.4712384 C3.85936033,87.9325982 4.29599312,88.3558912 4.56762861,88.9112913 C4.84114121,89.4909274 4.87799759,90.1721256 4.66893598,90.783705 C4.42911049,91.5445394 3.9564261,92.1646829 3.47512771,92.7533651 C2.94073624,93.4069827 2.37630911,94.0765229 2.14915271,94.9430484 C2.12162963,95.048039 1.97595197,94.9946641 2.00343361,94.8898311 C2.39864773,93.3822299 3.72177083,92.5258769 4.35276571,91.1679972 C4.64719959,90.5343864 4.77078342,89.7987905 4.4947574,89.1299493 C4.25338292,88.5450762 3.80346067,88.1081469 3.41541774,87.6446842 C3.00333689,87.1775835 2.70092933,86.6059811 2.53461183,85.9798091 C2.38459902,85.3151894 2.33793288,84.6271797 2.39661177,83.9452423 C2.50657819,82.4076497 2.83443294,80.898743 3.36816575,79.4737979 C3.96915835,77.8437845 4.81781455,76.3394961 5.87741691,75.0260163 C5.94302885,74.9447499 6.04414065,75.0725823 5.97895611,75.1533172 L5.97895611,75.1533114 Z" id="Path" fill="#FFFFFF"></path>
                <path d="M2.88003461,82.9967722 C1.70867878,82.6765426 0.915818633,81.4478987 1.00714614,80.0944785 C1.01649762,79.9619131 1.19986681,79.9720578 1.19050294,80.1047907 C1.103361,81.3653831 1.84485664,82.5095065 2.93757942,82.8005195 C3.05247851,82.8312817 2.99427382,83.0273582 2.88003461,82.9967722 Z" id="Path" fill="#FFFFFF"></path>
                <path d="M4.03948634,87.8211554 C4.91406106,87.2033124 5.55968073,86.2181579 5.84760825,85.0621324 C5.87605528,84.9475708 6.02482519,85.005839 5.99641123,85.1202645 C5.69488921,86.3225895 5.0212615,87.3461778 4.10996444,87.9867511 C4.023072,88.0477373 3.95306208,87.8818099 4.03948501,87.8211554 L4.03948634,87.8211554 Z" id="Path" fill="#FFFFFF"></path>
                <path d="M4.0764169,78.2015397 C4.34634256,78.7044145 4.66267567,78.6414582 4.91822445,78.0340041 C4.98261637,77.8798936 5.03484717,78.2908097 4.97087318,78.4439092 C4.68786014,79.1096049 4.33908605,79.1820556 4.03971425,78.6373385 C4.00974849,78.5943378 3.99345476,78.4674807 4.00248599,78.3474929 C4.01275324,78.227598 4.04573423,78.1624875 4.0764169,78.2015397 L4.0764169,78.2015397 Z" id="Path" fill="#FFFFFF"></path>
                <path d="M17,82.4113755 C16.9444584,82.4490814 16.8889167,82.4867873 16.833307,82.5259434 C16.0890946,83.0369318 15.3858698,83.6102068 14.7305719,84.2401114 C14.6791664,84.2879689 14.6277608,84.3372766 14.5777803,84.3865843 C13.0145181,85.9217288 11.7377987,87.7465811 10.8125237,89.7683757 C10.4450425,90.5732495 10.1367386,91.4061495 9.89028107,92.2598653 C9.54997567,93.4388996 9.27083691,94.7455539 8.59721778,95.7099547 C8.52801993,95.8113952 8.4528705,95.9082624 8.37220122,96 L2.2846957,96 C2.27086099,95.9927489 2.25695821,95.986948 2.24305544,95.9796968 L2,95.9912986 C2.00976527,95.9463416 2.02081943,95.8999344 2.0305861,95.8549773 C2.03614165,95.8288732 2.04306387,95.8027692 2.04862498,95.7766651 C2.05276109,95.7592624 2.05696664,95.7418596 2.05974719,95.7259071 C2.06110275,95.7201062 2.06252497,95.7143053 2.0638833,95.7099547 C2.06666108,95.6940022 2.07086941,95.6794999 2.07364858,95.6649976 C2.13475318,95.405407 2.19771009,95.1458165 2.26251932,94.8862259 C2.26251932,94.8847756 2.26251932,94.8847756 2.26387488,94.8833254 C2.76253298,92.9066664 3.42361045,90.9561114 4.34720725,89.1723325 C4.37501279,89.1186742 4.40275028,89.0635655 4.43333498,89.0099071 C4.85392282,88.2082759 5.33655423,87.4438788 5.87640932,86.7243498 C6.17323025,86.3313499 6.48891466,85.9542918 6.82225055,85.5946232 C7.68525245,84.6670244 8.68261743,83.8869377 9.77778112,83.2829618 C11.961144,82.0792736 14.4888789,81.6181015 16.8222529,82.3533664 C16.8819237,82.3722194 16.9403139,82.3910723 17,82.4113755 Z" id="Path" fill="#F0F0F0"></path>
                <path d="M16.928722,83.1655059 C13.9033142,83.7662145 11.1441518,85.3046486 9.0431396,87.5622926 C8.58220948,88.0402851 8.19952573,88.5879238 7.90917657,89.1850476 C7.64514213,89.7758596 7.54418072,90.4265772 7.61678246,91.0695894 C7.6724274,91.6704958 7.79895404,92.2787149 7.70751686,92.8826797 C7.60356421,93.5065731 7.23820731,94.0564573 6.70325757,94.3941507 C6.05506325,94.8273057 5.28984309,95.0017905 4.5355889,95.1464217 C3.69813413,95.3070087 2.82573546,95.4605434 2.12679492,95.9834934 C2.04210976,96.0468563 1.94871531,95.9117855 2.03327294,95.8485196 C3.24930958,94.9386757 4.87889142,95.129604 6.2091885,94.487295 C6.82993115,94.1875812 7.36408543,93.6990384 7.51785858,93.0046231 C7.65232519,92.3973879 7.5223872,91.7700757 7.4607845,91.1621324 C7.38076122,90.5358925 7.4553407,89.8995892 7.67800811,89.3088064 C7.93700863,88.6988319 8.29795126,88.1373672 8.74537963,87.6484555 C9.73512568,86.5316943 10.8943583,85.5774525 12.1806116,84.8206865 C13.6438114,83.9488577 15.2454099,83.3336804 16.9161134,83.0017705 C17.0195285,82.9812708 17.031462,83.1451406 16.9287276,83.1655073 L16.928722,83.1655059 Z" id="Path" fill="#FFFFFF"></path>
                <path d="M10.7167546,85.96786 C9.73431517,85.1077216 9.76500773,83.8635577 10.7892564,83.0289041 C10.8899921,82.947381 11.0712824,83.0558674 10.9704133,83.1374978 C10.014282,83.9137509 9.98896417,85.0740922 10.9107606,85.8714397 C11.0075764,85.9553852 10.8130167,86.0513254 10.7167586,85.96786 L10.7167546,85.96786 Z" id="Path" fill="#FFFFFF"></path>
                <path d="M7.11842914,90.8145215 C8.44249738,90.9276822 9.77193344,90.6426046 10.8416462,90.0161334 C10.947565,89.9539964 11.0641046,90.0870693 10.958312,90.1491298 C9.84360226,90.7994088 8.45935614,91.0938542 7.08182884,90.9737035 C6.95054086,90.9621789 6.98785359,90.8030557 7.11842914,90.814516 L7.11842914,90.8145215 Z" id="Path" fill="#FFFFFF"></path>
                <path d="M14.124534,84.0409139 C14.2871246,84.4728765 14.5954396,84.7625042 14.9450041,84.8116547 C15.0332747,84.8236929 15.0081153,85.0114057 14.9204185,84.9994528 C14.5345571,84.9426816 14.1940748,84.6243607 14.0113968,84.1495978 C13.9910321,84.105902 13.9986403,84.0477834 14.0287807,84.0168037 C14.0600664,83.987071 14.1027818,83.9978266 14.124534,84.0409139 L14.124534,84.0409139 Z" id="Path" fill="#FFFFFF"></path>
                <path d="M106,9.07521642 C100.783512,3.5576094 93.6023638,0.299085851 86,0 L86,29 L106,9.07521642 Z" id="Path" fill="#3F3D56"></path>
                <path d="M105.319829,12 L86,32 L113,32 C113.009539,24.5609712 110.260416,17.4019348 105.319829,12 L105.319829,12 Z" id="Path" fill="#E4E4E4"></path>
                <path d="M114,34 C114.001142,35.8075183 113.833149,37.6112128 113.498192,39.3877036 C113.472211,39.5283897 113.444823,39.6676402 113.415954,39.8068907 C112.784437,42.9057652 111.644451,45.8798968 110.041788,48.6098213 C109.956736,48.7562497 109.868724,48.9026781 109.780785,49.0462353 L109.780785,49.0476709 C108.20131,51.6350969 106.226112,53.9614105 103.926416,55.9427256 C103.812501,56.0417715 103.698576,56.139399 103.583247,56.2355824 C98.6412251,60.3749961 92.4537392,62.7553721 86,63 L86,34 L114,34 Z" id="Path" fill="#F0F0F0"></path>
                <path d="M83.8545163,63 C84.2383063,63 84.6197921,62.9901494 85,62.9752701 L85,34 L64,55.0719622 C69.3601173,60.171643 76.468034,63.0098713 83.8545163,63 Z" id="Path" fill="#CACACA"></path>
                <path d="M83.8275855,3 C67.9065187,3 55,15.9837456 55,32 L85,32 L85,3.02585158 C84.6109246,3.01018774 84.2205004,3 83.8275855,3 Z" id="Path" fill="#6C63FF"></path>
                <path d="M77,34 L70.9332458,40.0765775 L70.7348485,40.2752706 L70.7305286,40.2795589 L65.4401306,45.577088 L65.2389504,45.77864 L59.5232065,51.5035736 L59.3219564,51.7051256 L59.3219564,51.706555 L56.0324127,55 C50.2592595,49.5470455 46.9908273,41.9480544 47,34 L77,34 Z" id="Path" fill="#6C63FF"></path>
                <path d="M29.0439881,60.7349832 C29.5465567,60.4624733 29.8882568,60.0050102 29.9771447,59.4856866 C30.0660327,58.9663629 29.8929779,58.4385244 29.5045453,58.0442002 L29.7723115,45 L26.5736804,45.2394865 L26.5811886,57.9563372 C25.8675681,58.5975264 25.8033253,59.6144079 26.4316517,60.3233152 C27.0599782,61.0322224 28.1822693,61.2090805 29.0439898,60.7349846 L29.0439881,60.7349832 Z" id="Path" fill="#FFB6B6"></path>
                <path d="M31.2210056,47.9965266 L27.643931,47.627985 C27.4379838,47.6067636 27.2507847,47.4897307 27.1311144,47.3073829 C27.0114441,47.1250351 26.9711559,46.895434 27.0207481,46.6784092 L27.8797393,42.9204182 C27.9892846,41.7495546 28.9550177,40.8952602 30.038914,41.0103968 C31.1228104,41.1255335 31.9160948,42.1666791 31.81253,43.338178 L31.999039,47.1913164 C32.0097806,47.4145568 31.9300621,47.6317934 31.7806567,47.7864185 C31.6312512,47.9410435 31.4269572,48.0177416 31.2210097,47.9965266 L31.2210056,47.9965266 Z" id="Path" fill="#E4E4E4"></path>
                <polygon id="Path" fill="#FFB6B6" points="25.000268 95 26.3553531 95 27 89 25 89.0001538"></polygon>
                <path d="M24,94.0001236 L27.0537736,94 L27.0538963,94 C28.1286635,94.0000581 28.9999246,94.8671869 29,95.9368734 L29,95.9998154 L24.000092,96 L24,94.0001236 Z" id="Path" fill="#2F2E41"></path>
                <polygon id="Path" fill="#FFB6B6" points="38.000134 95 39.3553531 95 40 89 38 89.0001538"></polygon>
                <path d="M37,94.0001236 L40.0537721,94 L40.0538963,94 C41.1286635,94.0000581 41.9999246,94.8671869 42,95.9368734 L42,95.9998154 L37.000092,96 L37,94.0001236 Z" id="Path" fill="#2F2E41"></path>
                <polygon id="Path" fill="#FFB6B6" points="36.0526845 50 37 55.8846046 28 56 29.1841803 50.3461861"></polygon>
                <path d="M36.7636147,54 C39.6323603,58.9410769 39.8772261,75.695425 40,93 L37.5613533,93 L31.7323422,67.7568524 L26.3791857,92.3410087 L24,92.3410087 L25.6654307,64.6985366 C25.6654307,64.6985366 25.1743104,59.1503808 27.6877374,55.8764713 L28.2995262,54.1287502 L36.7636147,54 Z" id="Path" fill="#2F2E41"></path>
                <path d="M29.2660445,53 C29.2137898,53 29.161664,52.9949082 29.1104097,52.9849133 L29.1104097,52.9849133 C28.7562386,52.915315 28.4926487,52.6224932 28.4657121,52.2687194 C28.3771767,51.0781334 27.9385027,49.0057142 27.1618693,46.1089157 C26.624344,44.0903769 27.4541705,41.9596266 29.2260311,40.8087553 C30.9978918,39.657884 33.3189674,39.7420384 34.9996184,41.0180863 C36.0601946,41.8160472 36.7430174,43.0047892 36.8899637,44.3090325 C37.2759504,47.647708 36.5482581,50.9998058 36.2175055,52.2860315 C36.1281613,52.6311169 35.8153969,52.8752616 35.4529586,52.8828389 L29.2831976,52.9998135 C29.2774685,53 29.2717722,53 29.2660445,53 Z" id="Path" fill="#E4E4E4"></path>
                <path d="M46.6717755,42.0714011 C46.6343837,42.1593231 46.6036633,42.2501992 46.5798999,42.3431843 L38.7877697,45.1189733 L37.2821018,43.7400502 L35,45.8501877 L37.4391928,48.5628555 C37.8439627,49.0130073 38.4835877,49.1290304 39.009104,48.8476254 L47.3471623,44.3827379 C47.9645398,44.7797406 48.7518366,44.7348394 49.324487,44.2699669 C49.8971374,43.8050944 50.135647,43.0172552 49.9235125,42.2912799 C49.7113781,41.5653045 49.0928655,41.0526816 48.3700956,41.0038087 C47.6473256,40.9549359 46.9711181,41.3800112 46.6717755,42.0714011 L46.6717755,42.0714011 Z" id="Path" fill="#FFB6B6"></path>
                <path d="M38.7350938,45.3102307 L35.7900579,47.8139889 C35.6204971,47.9581382 35.3948728,48.0233089 35.1719784,47.9925188 C34.949084,47.9617288 34.7509972,47.8380276 34.6293358,47.6536496 L32.5228274,44.4607829 C31.748186,43.5876261 31.8455454,42.2689661 32.7404977,41.5126003 C33.6354501,40.7562345 34.9904485,40.8474397 35.7699234,41.7165114 L38.728003,44.1691224 C38.8993389,44.3112691 38.9986239,44.5189678 39,44.7380958 C39.0013478,44.9572238 38.9046518,45.1660766 38.7350953,45.3102307 L38.7350938,45.3102307 Z" id="Path" fill="#E4E4E4"></path>
                <circle id="Oval" fill="#FFB6B6" transform="translate(31.639137, 35.304591) rotate(-61.336830) translate(-31.639137, -35.304591) " cx="31.6391375" cy="35.3045906" r="3.77984792"></circle>
                <path d="M32.5295372,30.1673475 L31.7974068,30.1673475 C31.4460071,30.0559815 31.079886,29.9995507 30.7116783,30 C30.650997,30 30.590677,30.0014986 30.5307184,30.0044905 C29.1283085,30.09391 27.9321749,31.0649427 27.5409672,32.4315991 C26.7223652,35.1985471 27.0759607,38.2601252 27.0759607,38.2601252 C28.2707876,38.8073455 30.0969573,39.212315 32.7939697,38.8793011 L33.1905823,37.1958168 L33.1574981,38.8291006 C33.5376443,38.7755482 33.9342787,38.7063799 34.3474014,38.6215956 L34.3474014,35.0203358 L36,35.0203358 C36,32.3394744 35.1769988,30.1673475 32.5295372,30.1673475 Z" id="Path" fill="#2F2E41"></path>
                <path d="M118.856397,63.05 L64.1436031,63.05 C64.0642933,63.05 64,63.0276142 64,63 C64,62.9723858 64.0642933,62.95 64.1436031,62.95 L118.856397,62.95 C118.935707,62.95 119,62.9723858 119,63 C119,63.0276142 118.935707,63.05 118.856397,63.05 Z" id="Path" fill="#F0F0F0"></path>
                <path d="M118.95,81.8563969 L118.95,27.1436031 C118.95,27.0642933 118.972386,27 119,27 C119.027614,27 119.05,27.0642933 119.05,27.1436031 L119.05,81.8563969 C119.05,81.9357067 119.027614,82 119,82 C118.972386,82 118.95,81.9357067 118.95,81.8563969 Z" id="Path" fill="#F0F0F0"></path>
                <circle id="Oval" fill="#F0F0F0" cx="111.5" cy="68.5" r="2.5"></circle>
                <circle id="Oval" fill="#F0F0F0" cx="55.5" cy="3.5" r="2.5"></circle>
                <path d="M55,96 C55,96.013275 54.9850468,96.0260198 54.9580868,96.0354067 C54.9311269,96.0447936 54.8945229,96.0500464 54.856396,96.05 L0.143603131,96.05 C0.0642933117,96.05 0,96.0276141 0,96 C0,95.9723859 0.0642933117,95.95 0.143603131,95.95 L54.856396,95.95 C54.8945229,95.9499536 54.9311269,95.9552064 54.9580868,95.9645933 C54.9850468,95.9739802 55,95.986725 55,96 L55,96 Z" id="Path" fill="#CACACA"></path>
                <path d="M58.6043632,52 C53.9497078,47.2283334 51.2298578,40.7977362 51,34.020848 L51.5608784,34 C51.7858015,40.6294748 54.4465493,46.9201659 59,51.5879937 L58.6043632,52 Z" id="Path" fill="#3F3D56"></path>
                <path d="M65,45.6074967 L64.578329,46 C61.3647719,42.6570925 59.096646,38.5428556 58,34.0673272 L58.2821556,34 L58.5816352,34 C59.6601934,38.3502335 61.8702451,42.3487263 64.9941778,45.6017667 L65,45.6074967 Z" id="Path" fill="#3F3D56"></path>
                <path d="M71,39.6602522 L70.8034737,39.8261447 L70.7995078,39.8301261 L70.5977998,40 C69.1276934,38.218874 67.9161997,36.2342344 67,34.1061712 L67.2397712,34 L67.5267559,34 C68.4141305,36.034853 69.5783807,37.9338417 70.9856064,39.6416722 C70.9899825,39.6481892 70.9947915,39.6543969 71,39.6602522 Z" id="Path" fill="#3F3D56"></path>
            </g>
        </g>
    </g>
</svg>